<?xml version="1.0" encoding="UTF-8" standalone="no"?>
<svg
   xmlns:dc="http://purl.org/dc/elements/1.1/"
   xmlns:cc="http://creativecommons.org/ns#"
   xmlns:rdf="http://www.w3.org/1999/02/22-rdf-syntax-ns#"
   xmlns:svg="http://www.w3.org/2000/svg"
   xmlns="http://www.w3.org/2000/svg"
   xmlns:sodipodi="http://sodipodi.sourceforge.net/DTD/sodipodi-0.dtd"
   xmlns:inkscape="http://www.inkscape.org/namespaces/inkscape"
   class="icon"
   width="200px"
   height="200.00px"
   viewBox="0 0 1024 1024"
   version="1.1"
   id="svg4"
   sodipodi:docname="logo.svg"
   inkscape:version="0.92.3 (2405546, 2018-03-11)">
  <metadata
     id="metadata10">
    <rdf:RDF>
      <cc:Work
         rdf:about="">
        <dc:format>image/svg+xml</dc:format>
        <dc:type
           rdf:resource="http://purl.org/dc/dcmitype/StillImage" />
      </cc:Work>
    </rdf:RDF>
  </metadata>
  <defs
     id="defs8" />
  <sodipodi:namedview
     pagecolor="#ffffff"
     bordercolor="#666666"
     borderopacity="1"
     objecttolerance="10"
     gridtolerance="10"
     guidetolerance="10"
     inkscape:pageopacity="0"
     inkscape:pageshadow="2"
     inkscape:window-width="2736"
     inkscape:window-height="1699"
     id="namedview6"
     showgrid="false"
     showguides="false"
     inkscape:zoom="1.668772"
     inkscape:cx="-285.92875"
     inkscape:cy="34.55491"
     inkscape:window-x="-13"
     inkscape:window-y="1715"
     inkscape:window-maximized="1"
     inkscape:current-layer="svg4">
    <inkscape:grid
       type="xygrid"
       id="grid84" />
  </sodipodi:namedview>
  <path
     d="M 841.63951,35.898315 C 863.98135,53.45257 876.6417,77.150808 876.6417,102.01941 V 1906.3074 c 0,51.7851 -53.24805,93.6229 -119.15626,93.6229 H -1625.642 c -65.9083,0 -119.1563,-41.8378 -119.1563,-93.6229 V -527.88685 c 0,-51.78513 53.248,-93.62286 119.1563,-93.62286 H -44.213585 c 31.650885,0 62.184669,9.94741 84.526503,27.50167 z M 601.83746,145.0274 -98.951163,-405.59206 V 145.0274 Z m -1355.6645,804.36665 220.10411,389.04675 a 59.589349,46.820206 0 0 0 54.45454,27.8031 h 89.5719 c 23.57072,0 44.92568,-10.9188 54.47693,-27.847 l 220.10035,-390.14387 v 460.67707 c 0,25.8574 26.679825,46.8202 59.589331,46.8202 H 46.263138 c 32.909505,0 59.589512,-20.9628 59.589512,-46.8202 V 613.14756 c 0,-25.85746 -26.680007,-46.82021 -59.589512,-46.82021 H -83.118287 a 59.589349,46.820206 0 0 0 -54.636893,28.13367 L -433.68366,1128.6584 -729.61233,594.46102 a 59.589349,46.820206 0 0 0 -54.6369,-28.13074 h -130.17088 c -32.90932,0 -59.58933,20.96273 -59.58933,46.8202 V 1408.933 c 0,25.8575 26.68001,46.8202 59.58933,46.8202 h 101.0075 c 32.90951,0 59.58933,-20.9627 59.58933,-46.8202 V 949.39112 Z"
     id="path2"
     inkscape:connector-curvature="0"
     style="fill:#0061b0;stroke-width:3.30065084" />
</svg>
