<?xml version="1.0" encoding="UTF-8" standalone="no"?>
<svg
   xmlns:dc="http://purl.org/dc/elements/1.1/"
   xmlns:cc="http://creativecommons.org/ns#"
   xmlns:rdf="http://www.w3.org/1999/02/22-rdf-syntax-ns#"
   xmlns:svg="http://www.w3.org/2000/svg"
   xmlns="http://www.w3.org/2000/svg"
   xmlns:sodipodi="http://sodipodi.sourceforge.net/DTD/sodipodi-0.dtd"
   xmlns:inkscape="http://www.inkscape.org/namespaces/inkscape"
   class="icon"
   width="200px"
   height="200.00px"
   viewBox="0 0 1024 1024"
   version="1.1"
   id="svg4"
   sodipodi:docname="logo.svg"
   inkscape:version="0.92.3 (2405546, 2018-03-11)">
  <metadata
     id="metadata10">
    <rdf:RDF>
      <cc:Work
         rdf:about="">
        <dc:format>image/svg+xml</dc:format>
        <dc:type
           rdf:resource="http://purl.org/dc/dcmitype/StillImage" />
        <dc:title></dc:title>
      </cc:Work>
    </rdf:RDF>
  </metadata>
  <defs
     id="defs8" />
  <sodipodi:namedview
     pagecolor="#ffffff"
     bordercolor="#666666"
     borderopacity="1"
     objecttolerance="10"
     gridtolerance="10"
     guidetolerance="10"
     inkscape:pageopacity="0"
     inkscape:pageshadow="2"
     inkscape:window-width="1368"
     inkscape:window-height="849"
     id="namedview6"
     showgrid="false"
     showguides="false"
     inkscape:zoom="1.18"
     inkscape:cx="85.788881"
     inkscape:cy="121.73308"
     inkscape:window-x="-8"
     inkscape:window-y="-8"
     inkscape:window-maximized="1"
     inkscape:current-layer="svg4"
     inkscape:pagecheckerboard="true">
    <inkscape:grid
       type="xygrid"
       id="grid84" />
  </sodipodi:namedview>
  <path
     d="m 1006.696,258.14929 c 8.7024,6.8376 13.6338,16.06833 13.6338,25.75495 v 702.79128 c 0,20.17088 -20.74076,36.46718 -46.41277,36.46718 H 45.661004 c -25.672046,0 -46.41277406,-16.2963 -46.41277406,-36.46718 V 38.548361 C -0.75177006,18.37746 19.988958,2.0811735 45.661004,2.0811735 H 661.64588 c 12.3284,0 24.22167,3.8746169 32.92405,10.7122125 z M 913.29032,300.65635 640.32496,86.183616 V 300.65635 Z m -528.04718,313.31024 85.73313,151.53824 a 23.210748,18.237018 0 0 0 21.21067,10.82964 h 34.8893 c 9.18107,0 17.49908,-4.253 21.21941,-10.84674 l 85.73166,-151.96559 v 179.43911 c 0,10.07176 10.39211,18.237 23.21074,18.237 h 39.64957 c 12.81863,0 23.21082,-8.16524 23.21082,-18.237 V 482.99463 c 0,-10.07178 -10.39219,-18.23701 -23.21082,-18.23701 H 646.49205 A 23.210748,18.237018 0 0 0 625.21033,475.716 L 509.94273,683.79214 394.67505,475.716 a 23.210748,18.237018 0 0 0 -21.2817,-10.95725 h -50.70309 c -12.81857,0 -23.21074,8.16523 -23.21074,18.23702 v 309.96661 c 0,10.07179 10.39217,18.23701 23.21074,18.23701 h 39.34361 c 12.81863,0 23.21074,-8.16522 23.21074,-18.23701 V 613.96544 Z"
     id="path2"
     inkscape:connector-curvature="0"
     style="fill:#0061b0;stroke-width:1.28564215" />
  <path
     style="fill:#f9f9f9;fill-opacity:1;stroke:#0061b0;stroke-width:2.45000005;stroke-linecap:butt;stroke-linejoin:miter;stroke-miterlimit:4;stroke-dasharray:1.22500002,1.22500002;stroke-opacity:1;stroke-dashoffset:0"
     d="m 60.026169,156.91099 c -0.754574,-0.75458 -1.016949,-9.16475 -1.016949,-32.5973 0,-36.441929 -0.863679,-33.334907 9.266321,-33.334907 4.583683,0 6.337371,0.349454 7.478055,1.490139 0.819576,0.819576 6.390439,10.353478 12.379697,21.186438 5.989257,10.83297 11.135721,19.6963 11.436586,19.6963 0.300867,0 5.631761,-9.15684 11.846431,-20.34855 6.21468,-11.1917 12.00394,-20.725596 12.86502,-21.186436 2.61497,-1.39949 13.21357,-1.0447 14.7521,0.493829 1.16231,1.162309 1.33172,5.29129 1.33172,32.457627 0,23.0791 -0.2629,31.38881 -1.01695,32.14286 -1.34974,1.34974 -12.71805,1.34974 -14.06779,0 -0.7279,-0.7279 -1.01695,-6.19586 -1.01695,-19.23729 0,-11.25815 -0.30148,-17.91271 -0.78898,-17.41526 -0.43394,0.4428 -4.42323,7.25639 -8.86508,15.14132 -4.44185,7.88492 -8.56774,14.64815 -9.16864,15.02939 -0.60091,0.38125 -3.45006,0.69901 -6.33146,0.70615 -6.243765,0.0155 -5.216562,1.17445 -16.030036,-18.08654 l -7.54462,-13.4385 -0.423729,18.09952 c -0.233051,9.95473 -0.732253,18.57621 -1.109336,19.15883 -0.909047,1.40456 -12.577849,1.43994 -13.97541,0.0424 z"
     id="path822"
     inkscape:connector-curvature="0"
     transform="scale(5.12)" />
  <path
     style="fill:#f9f9f9;fill-opacity:1;stroke:#0061b0;stroke-width:2.0762713;stroke-linecap:butt;stroke-linejoin:miter;stroke-miterlimit:4;stroke-dasharray:1.03813561, 1.03813561;stroke-dashoffset:0;stroke-opacity:1"
     d="m 125.11092,38.012682 c 0,-10.95339 0.21792,-19.915255 0.48426,-19.915255 0.4864,0 47.16148,36.462723 49.48547,38.658206 1.05812,0.999613 -2.53096,1.172303 -24.36441,1.172303 h -25.60532 z"
     id="path824"
     inkscape:connector-curvature="0"
     transform="scale(5.12)" />
</svg>
